<svg width="23" height="22" viewBox="0 0 23 22" fill="none" xmlns="http://www.w3.org/2000/svg">
<path d="M11.5832 0C8.64425 0 8.27798 0.0141911 7.12782 0.0628465C5.97293 0.119611 5.19174 0.29869 4.50246 0.566294C3.78105 0.838643 3.12772 1.26505 2.58801 1.81579C2.03573 2.35424 1.60909 3.00794 1.33851 3.73024C1.07091 4.41953 0.891828 5.20072 0.835063 6.3556C0.783029 7.50644 0.772217 7.87203 0.772217 10.8109C0.772217 13.7499 0.786408 14.1161 0.835063 15.2663C0.891828 16.4178 1.07091 17.2024 1.33851 17.8917C1.61086 18.6131 2.03727 19.2664 2.58801 19.8061C3.12646 20.3584 3.78015 20.785 4.50246 21.0556C5.19174 21.3198 5.97631 21.5023 7.12782 21.559C8.27866 21.6111 8.64425 21.6219 11.5832 21.6219C14.5221 21.6219 14.8884 21.6077 16.0385 21.559C17.19 21.5023 17.9746 21.3192 18.6639 21.0556C19.3853 20.7833 20.0386 20.3568 20.5783 19.8061C21.1313 19.2682 21.5581 18.6144 21.8278 17.8917C22.092 17.2024 22.2745 16.4178 22.3313 15.2663C22.3833 14.1155 22.3941 13.7499 22.3941 10.8109C22.3941 7.87203 22.3799 7.50576 22.3313 6.3556C22.2745 5.20409 22.0914 4.41547 21.8278 3.73024C21.5555 3.00883 21.1291 2.3555 20.5783 1.81579C20.0405 1.2628 19.3866 0.836047 18.6639 0.566294C17.9746 0.29869 17.19 0.119611 16.0385 0.0628465C14.8877 0.0108123 14.5221 0 11.5832 0ZM11.5832 1.94621C14.4694 1.94621 14.814 1.96041 15.9547 2.00906C17.0069 2.05839 17.5799 2.23409 17.9604 2.38276C18.4307 2.55638 18.8565 2.83272 19.2065 3.19166C19.5648 3.54024 19.8401 3.96497 20.012 4.43439C20.1607 4.81485 20.3364 5.3879 20.3857 6.44008C20.4344 7.58077 20.4486 7.92609 20.4486 10.8116C20.4486 13.6972 20.4344 14.0425 20.3817 15.1832C20.3249 16.2353 20.1492 16.8084 20.0012 17.1889C19.7965 17.6964 19.568 18.0511 19.191 18.435C18.8397 18.7917 18.4143 19.0667 17.9449 19.2405C17.5691 19.3892 16.988 19.5649 15.9317 19.6142C14.785 19.6628 14.4471 19.677 11.5534 19.677C8.65979 19.677 8.32258 19.6628 7.17445 19.6101C6.12228 19.5534 5.54179 19.3777 5.16134 19.2297C4.64775 19.0249 4.29568 18.7965 3.9186 18.4194C3.53814 18.039 3.29621 17.6768 3.1097 17.1733C2.95833 16.7976 2.78533 16.2164 2.72924 15.1602C2.69072 14.0269 2.67248 13.6755 2.67248 10.7954C2.67248 7.91663 2.69072 7.56456 2.72924 6.4171C2.78533 5.36087 2.95833 4.78106 3.1097 4.40399C3.29621 3.88972 3.53881 3.53833 3.9186 3.15787C4.295 2.78146 4.64775 2.53819 5.16134 2.34762C5.54179 2.19963 6.10809 2.02393 7.16431 1.97122C8.31109 1.93 8.64898 1.91513 11.5386 1.91513L11.5832 1.94621ZM11.5832 5.26221C10.8542 5.26194 10.1324 5.40532 9.45892 5.68414C8.78544 5.96297 8.17349 6.37177 7.65807 6.8872C7.14264 7.40263 6.73383 8.01457 6.45501 8.68806C6.17619 9.36155 6.03281 10.0834 6.03308 10.8123C6.03281 11.5412 6.17619 12.2631 6.45501 12.9365C6.73383 13.61 7.14264 14.222 7.65807 14.7374C8.17349 15.2528 8.78544 15.6616 9.45892 15.9405C10.1324 16.2193 10.8542 16.3627 11.5832 16.3624C12.3121 16.3627 13.0339 16.2193 13.7074 15.9405C14.3809 15.6616 14.9928 15.2528 15.5083 14.7374C16.0237 14.222 16.4325 13.61 16.7113 12.9365C16.9901 12.2631 17.1335 11.5412 17.1333 10.8123C17.1335 10.0834 16.9901 9.36155 16.7113 8.68806C16.4325 8.01457 16.0237 7.40263 15.5083 6.8872C14.9928 6.37177 14.3809 5.96297 13.7074 5.68414C13.0339 5.40532 12.3121 5.26194 11.5832 5.26221ZM11.5832 14.4162C9.591 14.4162 7.97929 12.8045 7.97929 10.8123C7.97929 8.82013 9.591 7.20843 11.5832 7.20843C13.5753 7.20843 15.187 8.82013 15.187 10.8123C15.187 12.8045 13.5753 14.4162 11.5832 14.4162ZM18.6544 5.04056C18.6541 5.38497 18.517 5.71516 18.2733 5.95857C18.0297 6.20198 17.6993 6.33871 17.3549 6.33871C17.1846 6.33871 17.016 6.30517 16.8586 6.24C16.7013 6.17483 16.5583 6.07931 16.4379 5.95889C16.3175 5.83847 16.222 5.69551 16.1568 5.53817C16.0917 5.38084 16.0581 5.21221 16.0581 5.04191C16.0581 4.87161 16.0917 4.70298 16.1568 4.54565C16.222 4.38831 16.3175 4.24535 16.4379 4.12493C16.5583 4.00452 16.7013 3.90899 16.8586 3.84382C17.016 3.77865 17.1846 3.74511 17.3549 3.74511C18.0692 3.74511 18.6544 4.32627 18.6544 5.04056Z" fill="white"/>
</svg>
