<svg width="22" height="22" viewBox="0 0 22 22" fill="none" xmlns="http://www.w3.org/2000/svg">
<path fill-rule="evenodd" clip-rule="evenodd" d="M1 2.65588C1 2.21671 1.17446 1.79553 1.485 1.485C1.79553 1.17446 2.21671 1 2.65588 1H19.1624C19.38 0.999647 19.5956 1.04222 19.7968 1.12529C19.9979 1.20836 20.1807 1.33029 20.3347 1.4841C20.4887 1.6379 20.6108 1.82057 20.6941 2.02165C20.7774 2.22272 20.8202 2.43824 20.8201 2.65588V19.1624C20.8203 19.3801 20.7776 19.5957 20.6945 19.7968C20.6113 19.998 20.4893 20.1808 20.3354 20.3348C20.1815 20.4887 19.9988 20.6108 19.7977 20.6941C19.5965 20.7774 19.381 20.8202 19.1633 20.8201H2.65588C2.43835 20.8201 2.22295 20.7772 2.02199 20.6939C1.82103 20.6107 1.63845 20.4886 1.48468 20.3348C1.3309 20.1809 1.20895 19.9983 1.12579 19.7972C1.04263 19.5962 0.999882 19.3808 1 19.1633V2.65588ZM8.84514 8.55685H11.529V9.90462C11.9164 9.12984 12.9074 8.43253 14.3966 8.43253C17.2516 8.43253 17.9281 9.97579 17.9281 12.8074V18.0525H15.0389V13.4524C15.0389 11.8398 14.6515 10.9299 13.6677 10.9299C12.3028 10.9299 11.7353 11.911 11.7353 13.4524V18.0525H8.84514V8.55685ZM3.89013 17.929H6.78025V8.43253H3.89013V17.9281V17.929ZM7.19377 5.33519C7.19922 5.58265 7.15519 5.8287 7.06426 6.05891C6.97333 6.28912 6.83733 6.49884 6.66424 6.67578C6.49116 6.85272 6.28448 6.9933 6.05633 7.08927C5.82818 7.18525 5.58316 7.23469 5.33564 7.23469C5.08812 7.23469 4.8431 7.18525 4.61495 7.08927C4.3868 6.9933 4.18012 6.85272 4.00704 6.67578C3.83395 6.49884 3.69796 6.28912 3.60702 6.05891C3.51609 5.8287 3.47206 5.58265 3.47751 5.33519C3.4882 4.84947 3.68867 4.38724 4.03597 4.04751C4.38327 3.70777 4.8498 3.51753 5.33564 3.51753C5.82148 3.51753 6.28801 3.70777 6.63531 4.04751C6.98261 4.38724 7.18308 4.84947 7.19377 5.33519Z" fill="white"/>
</svg>
